# xmcd CD database file
#
# Track frame offsets:
#	150
#	17337
#	32340
#	49132
#	65207
#	81585
#	94692
#	110030
#	123127
#	138902
#	155947
#	175907
#	192352
#	209157
#	224515
#	236992
#	250120
#	262365
#
# Disc length: 3694 seconds
#
# Revision: 4
# Processed by: cddbd v1.5.2PL0 Copyright (c) Steve Scherf et al.
# Submitted via: CDex 1.70beta2
#
DISCID=190e6c12
DTITLE=최진희 - 최진희 골든 특집
DYEAR=1900
DGENRE=가요
TTITLE0=꼬마인형
TTITLE1=그여자가 가는곳은
TTITLE2=사랑의 미로
TTITLE3=우린 너무쉽게 헤어졌어요
TTITLE4=가버린 당신
TTITLE5=사랑그리고 이별
TTITLE6=물보라
TTITLE7=잃어버린 세월
TTITLE8=여심
TTITLE9=슬픈고백
TTITLE10=바람에 흔들리고 비에 젖어도
TTITLE11=사랑의 열쇠
TTITLE12=찻잔의 이별
TTITLE13=외로운 여자
TTITLE14=카페에서
TTITLE15=정주고 내가우네
TTITLE16=미운사람
TTITLE17=미련때문에
EXTD=
EXTT0=
EXTT1=
EXTT2=
EXTT3=
EXTT4=
EXTT5=
EXTT6=
EXTT7=
EXTT8=
EXTT9=
EXTT10=
EXTT11=
EXTT12=
EXTT13=
EXTT14=
EXTT15=
EXTT16=
EXTT17=
PLAYORDER=
